<?xml version="1.0" encoding="UTF-8" standalone="no"?>
<!-- Created with Inkscape (http://www.inkscape.org/) -->

<svg
   width="1920mm"
   height="1080mm"
   viewBox="0 0 1920 1080"
   version="1.1"
   id="svg1"
   xml:space="preserve"
   sodipodi:docname="ecran_titre.svg"
   inkscape:export-filename="ecran_titre.png"
   inkscape:export-xdpi="96"
   inkscape:export-ydpi="96"
   inkscape:version="1.4.3 (0d15f75042, 2025-12-25)"
   xmlns:inkscape="http://www.inkscape.org/namespaces/inkscape"
   xmlns:sodipodi="http://sodipodi.sourceforge.net/DTD/sodipodi-0.dtd"
   xmlns:xlink="http://www.w3.org/1999/xlink"
   xmlns="http://www.w3.org/2000/svg"
   xmlns:svg="http://www.w3.org/2000/svg"><sodipodi:namedview
     id="namedview1"
     pagecolor="#ffffff"
     bordercolor="#000000"
     borderopacity="0.25"
     inkscape:showpageshadow="2"
     inkscape:pageopacity="0.0"
     inkscape:pagecheckerboard="0"
     inkscape:deskcolor="#d1d1d1"
     inkscape:document-units="mm"
     inkscape:zoom="0.099131256"
     inkscape:cx="1366.8746"
     inkscape:cy="3137.2547"
     inkscape:window-width="1436"
     inkscape:window-height="847"
     inkscape:window-x="0"
     inkscape:window-y="0"
     inkscape:window-maximized="0"
     inkscape:current-layer="layer1" /><defs
     id="defs1"><rect
       x="1406.3659"
       y="1069.6304"
       width="5094.3942"
       height="3177.8615"
       id="rect3" /><rect
       x="2466.0924"
       y="1604.4457"
       width="2654.2681"
       height="752.7029"
       id="rect2" /><linearGradient
       id="swatch22"
       inkscape:swatch="solid"><stop
         style="stop-color:#000000;stop-opacity:1;"
         offset="0"
         id="stop22" /></linearGradient><inkscape:path-effect
       effect="powerstroke"
       message=""
       id="path-effect6"
       is_visible="true"
       lpeversion="1.3"
       scale_width="1"
       interpolator_type="CubicBezierJohan"
       interpolator_beta="0.2"
       start_linecap_type="zerowidth"
       end_linecap_type="zerowidth"
       offset_points="0,18.867925"
       linejoin_type="extrp_arc"
       miter_limit="4"
       not_jump="false"
       sort_points="true" /><inkscape:path-effect
       effect="spiro"
       id="path-effect5"
       is_visible="true"
       lpeversion="1" /><inkscape:path-effect
       effect="fill_between_many"
       method="bsplinespiro"
       autoreverse="false"
       close="false"
       join="false"
       linkedpaths="#path5,0,1"
       id="path-effect7" /><pattern
       inkscape:collect="always"
       xlink:href="#halftones"
       preserveAspectRatio="xMidYMid"
       id="pattern2"
       patternTransform="scale(8)"
       x="0"
       y="0" /><pattern
       patternUnits="userSpaceOnUse"
       width="10"
       height="10"
       preserveAspectRatio="xMidYMid"
       style="fill:#000000"
       id="halftones"
       x="0"
       y="0"
       inkscape:label="Retinatura"
       inkscape:collect="always"
       inkscape:isstock="true"><g
         id="fullPattern"
         style="display:inline"
         transform="scale(0.1)"><circle
           style="fill-opacity:1;stroke:none;paint-order:markers fill stroke;stop-color:#000000"
           id="circle10"
           cx="50"
           cy="50"
           r="25" /><path
           id="circle37"
           style="paint-order:markers fill stroke"
           d="M 25,0 A 25,25 0 0 1 0,25 25,25 0 0 1 -25,0 25,25 0 0 1 0,-25 25,25 0 0 1 25,0 Z" /><path
           id="circle39"
           style="paint-order:markers fill stroke"
           d="M 125,0 A 25,25 0 0 1 100,25 25,25 0 0 1 75,0 25,25 0 0 1 100,-25 25,25 0 0 1 125,0 Z" /><path
           id="circle43"
           style="paint-order:markers fill stroke"
           d="M 25,100 A 25,25 0 0 1 0,125 25,25 0 0 1 -25,100 25,25 0 0 1 0,75 25,25 0 0 1 25,100 Z" /><path
           id="circle45"
           style="paint-order:markers fill stroke"
           d="m 125,100 a 25,25 0 0 1 -25,25 25,25 0 0 1 -25,-25 25,25 0 0 1 25,-25 25,25 0 0 1 25,25 z" /></g></pattern><pattern
       inkscape:collect="always"
       xlink:href="#pattern6-7"
       preserveAspectRatio="xMidYMid"
       id="pattern7"
       patternTransform="translate(188.91447,344.57235)" /><pattern
       patternUnits="userSpaceOnUse"
       width="28.28"
       height="23.44"
       patternTransform="translate(190,350)"
       preserveAspectRatio="xMidYMid"
       style="fill:#000000"
       id="pattern6-7"
       inkscape:label=""
       inkscape:collect="always"
       inkscape:isstock="true"><path
         style="paint-order:stroke markers fill;stop-color:#000000"
         d="M 0,0        A 20,20 0,0,1 14.14,5.86        A 20,20 0,0,0 28.28,11.72        L 28.28, 23.44        A 20,20 0,0,1 14.14,17.58        A 20,20 0,0,0 0,11.72        L 0,0 "
         id="path4-2"
         sodipodi:nodetypes="cc" /></pattern></defs><g
     inkscape:label="Livello 1"
     inkscape:groupmode="layer"
     id="layer1"><rect
       style="fill:#09a7a8;stroke:#000000;stroke-width:0;fill-opacity:1"
       id="rect1"
       width="1920"
       height="1080"
       x="0"
       y="0" /><ellipse
       style="fill:#17a708;fill-opacity:1;stroke:#000000;stroke-width:10;stroke-dasharray:none"
       id="path3"
       cx="271.21445"
       cy="998.38361"
       rx="632.83374"
       ry="217.49565" /><ellipse
       style="fill:#17a708;fill-opacity:1;stroke:#000000;stroke-width:10;stroke-dasharray:none"
       id="path3-5"
       cx="1365.1436"
       cy="1022.0305"
       rx="632.83374"
       ry="217.49565" /><g
       id="g3"
       transform="matrix(0.77580477,0,0,1.0507201,-277.45716,-53.574275)"><path
         style="fill:#9c2108;fill-opacity:1;stroke:#000000;stroke-width:0"
         d="M 400.12997,704.43123 256.76394,1004.6086 606.57706,763.28956 738.47383,992.837 881.83986,786.83286 1111.2255,939.86448 1099.7562,722.08875 1426.6308,839.80538 1294.734,639.68707 1610.1393,586.7146 1334.8765,380.71048 1696.1588,257.10803 1225.9183,204.13553 1438.1,74.647239 967.85946,233.5647 663.92349,139.39139 592.9176,277.85927 222.3561,286.53719 371.93902,449.74447 165.00969,468.99798 Z"
         id="path2"
         sodipodi:nodetypes="ccccccccccccccccccccc" /><path
         style="fill:#ec650c;fill-opacity:1;stroke:#000000;stroke-width:0"
         d="M 546.15795,634.92019 366.16182,855.6389 689.68779,675.88913 739.31368,898.47958 881.06092,692.27668 1074.9625,857.6818 1032.5646,647.21089 1309.5438,760.55456 1168.1206,589.85437 1490.6742,560.83381 1196.0292,409.5911 1539.0036,260.74473 1120.2773,286.68432 1229.5452,176.92406 940.86502,307.1688 721.90743,198.43551 617.43045,322.84034 l -240.76628,13.34905 47.18031,129.15525 -186.49677,52.8086 z"
         id="path2-5"
         sodipodi:nodetypes="ccccccccccccccccccccc" /><path
         style="fill:#d6ec0c;fill-opacity:1;stroke:#000000;stroke-width:0"
         d="M 604.63253,622.01606 441.20174,788.80792 701.98325,636.9548 749.846,844.3342 874.58458,661.27328 l 164.15772,144.65546 -18.4527,-180.74126 233.7437,90.67939 -119.2366,-140.41835 291.443,-25.10377 -287.29,-145.44382 305.283,-128.08108 -363.7231,33.47673 43.5292,-72.50417 L 951.61501,337.41918 751.5381,236.79319 616.0646,355.23077 470.63072,359.90253 450.58744,485.26891 316.40636,531.61406 Z"
         id="path2-5-6"
         sodipodi:nodetypes="ccccccccccccccccccccc" /></g><text
       xml:space="preserve"
       transform="matrix(0.1188622,0,0,0.12455325,-95.331298,182.09924)"
       id="text2"
       style="font-size:1036.86px;font-family:'Adwaita Mono';-inkscape-font-specification:'Adwaita Mono';text-align:center;writing-mode:lr-tb;direction:ltr;white-space:pre;shape-inside:url(#rect3);fill:#290cec;fill-opacity:1;stroke:#000000;stroke-width:3.77953;stroke-dasharray:none"
       x="2406.6685"
       y="0"><tspan
         x="2398.2715"
         y="1999.6943"
         id="tspan2">OH MY </tspan><tspan
         x="2398.2715"
         y="3295.7692"
         id="tspan3">GOLF!</tspan></text><g
       inkscape:label="Livello 1"
       id="layer1-7"
       transform="matrix(1.32037,0,0,1.32037,659.36509,42.541689)"
       style="display:inline"><ellipse
         style="display:inline;fill:#214478;fill-opacity:1;stroke:#000000;stroke-width:1.51481;stroke-dasharray:none;stroke-opacity:1"
         id="path7"
         cx="415.92657"
         cy="443.8588"
         rx="28.861877"
         ry="124.42731"
         transform="matrix(0.91327248,0.40734922,-0.29791553,0.95459224,0,0)" /><ellipse
         style="display:inline;fill:#de3107;fill-opacity:1;stroke:#000000;stroke-width:1.38501;stroke-dasharray:none;stroke-opacity:1"
         id="path7-4-8-3"
         cx="167.13754"
         cy="507.82785"
         rx="27.379333"
         ry="109.65146"
         transform="matrix(0.98019399,-0.1980397,0.48660846,0.87362017,-5.8380102e-6,8.0469868e-7)" /><ellipse
         style="display:inline;fill:#214478;fill-opacity:1;stroke:#000000;stroke-width:1.51374;stroke-dasharray:none;stroke-opacity:1"
         id="path7-4"
         cx="394.23019"
         cy="510.10083"
         rx="28.80332"
         ry="124.50651"
         transform="matrix(0.97450301,0.22437443,-0.12149806,0.99259167,0,0)" /><ellipse
         style="display:inline;fill:#de3107;fill-opacity:1;stroke:#000000;stroke-width:1.74453;stroke-dasharray:none;stroke-opacity:1"
         id="path8"
         ry="147.95901"
         rx="68.269157"
         cy="308.41559"
         cx="408.68933"
         transform="matrix(0.9604166,0.2785677,-0.22116251,0.97523697,0,0)" /><ellipse
         style="display:inline;fill:#fda1f9;fill-opacity:1;stroke:#000000;stroke-width:1.92151;stroke-dasharray:none;stroke-opacity:1"
         id="path9"
         cx="465.04724"
         cy="-48.503551"
         rx="54.394619"
         ry="54.99918"
         transform="rotate(40.072684)" /><ellipse
         style="display:inline;fill:#6e4608;fill-opacity:1;stroke:#000000;stroke-width:3.77953"
         id="path2-1"
         cx="313.12253"
         cy="715.58704"
         rx="20.974693"
         ry="13.400498" /><ellipse
         style="display:inline;fill:#fda1f9;fill-opacity:1;stroke:#000000;stroke-width:0.794641;stroke-dasharray:none;stroke-opacity:1"
         id="path9-0"
         cx="679.17889"
         cy="68.041786"
         rx="22.387121"
         ry="22.854431"
         transform="matrix(0.74704049,0.66477853,-0.6224499,0.78265965,0,0)" /><ellipse
         style="display:inline;fill:#de3107;fill-opacity:1;stroke:#000000;stroke-width:1.45952;stroke-dasharray:none;stroke-opacity:1"
         id="path7-4-8"
         cx="103.81697"
         cy="553.50665"
         rx="27.775753"
         ry="117.81412"
         transform="matrix(0.86147981,-0.50779182,0.53451018,0.84516203,0,0)" /><rect
         style="display:inline;fill:#585858;fill-opacity:1;stroke:#000000;stroke-width:1.22906;stroke-dasharray:none;stroke-opacity:1"
         id="rect10"
         width="7.6810699"
         height="402.87335"
         x="548.94409"
         y="725.69812"
         transform="matrix(0.68131362,-0.73199163,0.0856661,0.9963239,-5.8380102e-6,8.0469868e-7)" /><ellipse
         style="display:inline;fill:#000000;fill-opacity:1;stroke:#000000;stroke-width:1.88976;stroke-dasharray:none;stroke-opacity:1"
         id="path10"
         cx="425.39456"
         cy="271.47018"
         rx="4.2319274"
         ry="4.8364882" /><ellipse
         style="display:inline;fill:#000000;fill-opacity:1;stroke:#000000;stroke-width:1.88976;stroke-dasharray:none;stroke-opacity:1"
         id="path10-8"
         cx="390.80249"
         cy="269.95212"
         rx="4.2319274"
         ry="4.8364882" /><ellipse
         style="display:inline;fill:#585858;fill-opacity:1;stroke:#000000;stroke-width:0.959421;stroke-dasharray:none;stroke-opacity:1"
         id="path11"
         cx="471.98886"
         cy="711.5882"
         rx="10.069418"
         ry="22.229366" /><ellipse
         style="display:inline;fill:#fda1f9;fill-opacity:1;stroke:#000000;stroke-width:0.794641;stroke-dasharray:none;stroke-opacity:1"
         id="path9-0-6"
         cx="669.27441"
         cy="77.800034"
         rx="22.387121"
         ry="22.854431"
         transform="matrix(0.7470405,0.66477853,-0.6224499,0.78265965,0,0)" /><ellipse
         style="display:inline;fill:#08a826;fill-opacity:1;stroke:#000000;stroke-width:4.09035;stroke-dasharray:none;stroke-opacity:1"
         id="path18"
         cx="298.44946"
         cy="228.57851"
         rx="70.817657"
         ry="26.512989"
         transform="matrix(0.99009008,0.14043375,0.54629144,0.83759517,0,0)" /><path
         style="display:inline;opacity:1;fill:#6e4608;fill-opacity:1;stroke:#000000;stroke-width:3.77953"
         d="m 391.57938,298.53744 c 7.0394,0.7088 13.81124,1.16526 20.97469,1.16526"
         id="path1" /><ellipse
         style="display:inline;opacity:1;fill:#6e4608;fill-opacity:1;stroke:#000000;stroke-width:3.77953"
         id="path2-4"
         cx="215.57324"
         cy="713.72223"
         rx="20.974693"
         ry="13.400498" /><path
         style="display:inline;fill:#086e0e;fill-opacity:1;stroke:#000000;stroke-width:5.59031"
         id="path3-6"
         sodipodi:type="arc"
         sodipodi:cx="-432.64093"
         sodipodi:cy="-129.74413"
         sodipodi:rx="48.99184"
         sodipodi:ry="49.659637"
         sodipodi:start="0"
         sodipodi:end="3.1415927"
         sodipodi:arc-type="slice"
         d="m -383.64909,-129.74413 a 48.99184,49.659637 0 0 1 -24.49592,43.006513 48.99184,49.659637 0 0 1 -48.99184,-2e-6 48.99184,49.659637 0 0 1 -24.49592,-43.006511 h 48.99184 z"
         transform="matrix(-0.96864199,-0.24846064,0.17397026,-0.98475091,0,0)" /><g
         id="g4"
         transform="matrix(0.08153383,0,0,0.08153383,497.54981,685.28092)"><g
           inkscape:label="Livello 1"
           id="layer1-3"><circle
             style="display:inline;fill:#f5f976;fill-opacity:1;stroke:#000000;stroke-width:7.55906;stroke-dasharray:none"
             id="path1-1"
             cx="360"
             cy="360"
             r="360" /><path
             style="display:inline;fill:#000000;fill-opacity:1;stroke:#000000;stroke-width:7.51989;stroke-dasharray:none"
             id="path1-7"
             sodipodi:type="arc"
             sodipodi:cx="360"
             sodipodi:cy="363.75995"
             sodipodi:rx="356.24005"
             sodipodi:ry="360.03915"
             sodipodi:start="0"
             sodipodi:end="3.1415927"
             sodipodi:arc-type="slice"
             d="M 716.24005,363.75995 A 356.24005,360.03915 0 0 1 538.12002,675.56301 356.24005,360.03915 0 0 1 181.87996,675.563 356.24005,360.03915 0 0 1 3.7599487,363.75995 H 360 Z" /><path
             style="fill:#f5f976;fill-opacity:1;stroke:url(#pattern7);stroke-width:0;stroke-dasharray:none"
             d="M 486.31781,358.22518 587.27218,579.67347 699.08185,358.22518 Z"
             id="path7-49" /><circle
             style="display:inline;opacity:0.538863;fill:url(#pattern2);stroke:#000000;stroke-width:7.55906;stroke-dasharray:none"
             id="path1-9"
             cx="363.77954"
             cy="363.77954"
             r="360" /><ellipse
             style="display:inline;fill:#000000;fill-opacity:1;stroke:#000000;stroke-width:7.55906;stroke-dasharray:none"
             id="path3-2"
             cx="546.7818"
             cy="259.88217"
             rx="14.152"
             ry="84.912003" /><ellipse
             style="display:inline;fill:#000000;fill-opacity:1;stroke:#000000;stroke-width:8.01387;stroke-dasharray:none"
             id="path4"
             cx="631.69379"
             cy="261.1687"
             rx="13.924596"
             ry="91.117317" /><ellipse
             style="display:inline;fill:#000000;fill-opacity:1;stroke:#000000;stroke-width:6.38312;stroke-dasharray:none"
             id="path4-0"
             cx="433.17578"
             cy="-601.85919"
             rx="14.7321"
             ry="54.63863"
             transform="matrix(-0.02270691,0.99974216,-0.9999996,8.9414284e-4,0,0)" /><path
             style="display:inline;fill:#ff1515;fill-opacity:1;stroke:#000000;stroke-width:4.53465;stroke-dasharray:none"
             d="m 575.19257,463.67251 15.04254,37.18756 21.05955,-38.87791 z"
             id="path5" /><path
             style="display:inline;fill:#ff1515;fill-opacity:1;stroke:#000000;stroke-width:7.55906;stroke-dasharray:none"
             d="m 590.19879,509.58315 -39.87154,87.71739 37.21344,39.87154 34.55534,-39.87154 z"
             id="path6" /><path
             style="fill:#000000;fill-opacity:1;stroke:#000000;stroke-width:0;stroke-dasharray:none"
             d="m 584.26317,338.68562 74.65404,61.87526 h -75.98715 z"
             id="path9-06" /></g></g></g></g></svg>
