<?xml version="1.0" encoding="UTF-8" standalone="no"?>
<!-- Created with Inkscape (http://www.inkscape.org/) -->

<svg
   width="297mm"
   height="297mm"
   viewBox="0 0 1122.5197 1122.5197"
   version="1.1"
   id="svg1"
   inkscape:version="1.4.3 (0d15f75042, 2025-12-25)"
   sodipodi:docname="grassy_ground.svg"
   inkscape:export-filename="grassy_ground.png"
   inkscape:export-xdpi="96"
   inkscape:export-ydpi="96"
   xmlns:inkscape="http://www.inkscape.org/namespaces/inkscape"
   xmlns:sodipodi="http://sodipodi.sourceforge.net/DTD/sodipodi-0.dtd"
   xmlns:xlink="http://www.w3.org/1999/xlink"
   xmlns="http://www.w3.org/2000/svg"
   xmlns:svg="http://www.w3.org/2000/svg">
  <sodipodi:namedview
     id="namedview1"
     pagecolor="#ffffff"
     bordercolor="#000000"
     borderopacity="0.25"
     inkscape:showpageshadow="2"
     inkscape:pageopacity="0.0"
     inkscape:pagecheckerboard="0"
     inkscape:deskcolor="#d1d1d1"
     inkscape:document-units="mm"
     inkscape:zoom="0.31086186"
     inkscape:cx="886.24573"
     inkscape:cy="25.734903"
     inkscape:window-width="1436"
     inkscape:window-height="847"
     inkscape:window-x="0"
     inkscape:window-y="0"
     inkscape:window-maximized="0"
     inkscape:current-layer="layer1" />
  <defs
     id="defs1">
    <pattern
       inkscape:collect="always"
       xlink:href="#pattern6-7"
       preserveAspectRatio="xMidYMid"
       id="pattern5"
       patternTransform="translate(190.00001,690.15751)" />
    <pattern
       inkscape:collect="always"
       xlink:href="#Fish scales"
       preserveAspectRatio="xMidYMid"
       id="pattern2"
       patternTransform="rotate(-1.7185015,30233.923,-1303.5328)"
       x="0"
       y="0" />
    <pattern
       patternUnits="userSpaceOnUse"
       preserveAspectRatio="xMidYMid"
       width="52.937091"
       height="52.937091"
       patternTransform="translate(51.417267,442.18243)"
       style="fill:#140e03"
       id="Fish scales"
       inkscape:collect="always"
       inkscape:isstock="true"
       inkscape:label="Fish scales">
      <path
         id="path48328"
         style="font-variation-settings:normal;opacity:1;fill-opacity:1;stroke:none;stroke-width:23.2816;stroke-linecap:butt;stroke-linejoin:miter;stroke-miterlimit:4;stroke-dasharray:none;stroke-dashoffset:0;stroke-opacity:1;paint-order:markers fill stroke;stop-color:#000000;stop-opacity:1"
         d="M 0,0 C 0,14.663252 11.805097,26.468546 26.468546,26.468546 41.131994,26.468546 52.937091,14.663252 52.937091,0 52.560688,0.09705827 52.330704,0.31891654 52.220118,0.68172094 49.513432,11.903656 39.064675,19.500949 26.468546,19.500949 13.872401,19.500949 3.4236548,11.903656 0.71697638,0.68172094 0.6064252,0.31892409 0.37636535,0.09701291 0,0 Z m 26.468546,26.468546 c 0,14.663346 11.805097,26.468545 26.468545,26.468545 v -6.968372 c -12.596145,0 -23.044894,-7.596412 -25.751569,-18.818453 -0.110551,-0.362796 -0.340611,-0.584723 -0.716976,-0.68172 z m 0,0 c -0.376404,0.09706 -0.606392,0.318916 -0.716977,0.68172 C 23.044891,38.372307 12.596145,45.968719 0,45.968719 v 6.968372 c 14.663448,0 26.468546,-11.805199 26.468546,-26.468545 z" />
    </pattern>
    <pattern
       inkscape:collect="always"
       xlink:href="#pattern6-7"
       preserveAspectRatio="xMidYMid"
       id="pattern3"
       patternTransform="translate(190.00001,690.15751)" />
    <pattern
       patternUnits="userSpaceOnUse"
       width="28.28"
       height="23.44"
       patternTransform="translate(190,350)"
       preserveAspectRatio="xMidYMid"
       style="fill:#000000"
       id="pattern6-7"
       inkscape:label="pattern6-7"
       inkscape:collect="always"
       inkscape:isstock="true">
      <path
         style="paint-order:stroke markers fill;stop-color:#000000"
         d="M 0,0        A 20,20 0,0,1 14.14,5.86        A 20,20 0,0,0 28.28,11.72        L 28.28, 23.44        A 20,20 0,0,1 14.14,17.58        A 20,20 0,0,0 0,11.72        L 0,0 "
         id="path4-2"
         sodipodi:nodetypes="cc" />
    </pattern>
    <pattern
       inkscape:collect="always"
       xlink:href="#pattern6-7-2"
       preserveAspectRatio="xMidYMid"
       id="pattern3-2"
       patternTransform="translate(190,690.15751)"
       x="0"
       y="0" />
    <pattern
       patternUnits="userSpaceOnUse"
       width="28.28"
       height="23.44"
       patternTransform="translate(190,350)"
       preserveAspectRatio="xMidYMid"
       style="fill:#000000"
       id="pattern6-7-2"
       inkscape:label="pattern6-7-2"
       inkscape:collect="always"
       inkscape:isstock="true">
      <path
         style="paint-order:stroke markers fill;stop-color:#000000"
         d="M 0,0        A 20,20 0,0,1 14.14,5.86        A 20,20 0,0,0 28.28,11.72        L 28.28, 23.44        A 20,20 0,0,1 14.14,17.58        A 20,20 0,0,0 0,11.72        L 0,0 "
         id="path4-2-6"
         sodipodi:nodetypes="cc" />
    </pattern>
  </defs>
  <g
     inkscape:label="Livello 1"
     inkscape:groupmode="layer"
     id="layer1">
    <rect
       style="fill:#94600b;fill-opacity:1;stroke:url(#pattern3);stroke-width:0"
       id="rect1"
       width="1122.5197"
       height="793.70081"
       x="2.7755576e-17"
       y="340.1575" />
    <rect
       style="display:none;fill:url(#pattern2);stroke:url(#pattern3-2);stroke-width:0"
       id="rect1-6"
       width="1122.5197"
       height="793.70081"
       x="2.7755576e-17"
       y="340.1575" />
    <path
       style="fill:#0cb716;fill-opacity:1;stroke:url(#pattern5);stroke-width:0"
       d="M 1.1134539e-5,340.15751 V 551.81106 L 176.89085,483.98465 l 95.88477,54.55512 109.11023,-62.82105 150.43988,74.39334 171.93129,-71.08697 104.15064,69.43379 143.8272,-69.43379 170.28474,72.78597 V 340.15751 Z"
       id="path2-7"
       sodipodi:nodetypes="cccccccccccc" />
    <path
       style="fill:#00ff00;stroke:#000000;stroke-width:0;stroke-dasharray:none"
       id="path6"
       d="m 716.96533,295.13196 c 3.13549,24.63857 3.48043,49.5139 3.99236,74.31187 0.28807,18.55866 0.20224,37.11907 -0.13125,55.6759 0,0 11.53003,5.86372 11.53003,5.86372 v 0 c -0.61441,-18.8168 -1.05591,-37.63831 -1.38912,-56.46224 -0.37622,-24.21024 -0.63205,-48.41991 -0.73997,-72.6319 z" />
    <path
       style="fill:#00ff00;stroke:#000000;stroke-width:0;stroke-dasharray:none"
       id="path7"
       d="m 810.58315,287.40725 c 3.86707,23.06843 3.58203,46.6913 3.33649,70.01253 -0.32058,18.97996 -1.52874,37.95687 -3.94133,56.78838 -0.47306,3.24351 -0.24264,1.79402 -0.67016,4.35178 0,0 13.07002,6.83594 13.07002,6.83594 v 0 c 0.13869,-2.72926 0.0631,-1.1887 0.22196,-4.62192 0.82998,-19.34127 1.52496,-38.69248 1.69595,-58.05214 0.28386,-22.93023 0.39707,-45.88373 -0.28852,-68.80499 z" />
    <path
       style="fill:#00ff00;stroke:#000000;stroke-width:0;stroke-dasharray:none"
       id="path8"
       d="m 957.6184,277.88405 c 2.15936,17.96186 2.10569,36.09321 1.84655,54.15137 -0.37901,23.58713 -2.09626,47.12087 -4.10937,70.61571 -0.78426,10.91582 -2.14159,21.77671 -3.10757,32.67615 -0.0864,0.962 -0.1728,1.924 -0.2592,2.886 0,0 12.875,6.66303 12.875,6.66303 v 0 c 0.0368,-0.98376 0.0736,-1.96751 0.11043,-2.95127 0.58521,-11.0724 1.70455,-22.10945 2.11798,-33.19171 1.2422,-23.69623 2.72955,-47.3825 3.28171,-71.10966 0.51326,-17.64655 0.67074,-35.29302 0.57591,-52.94691 z" />
    <path
       style="fill:#00ff00;stroke:#000000;stroke-width:0;stroke-dasharray:none"
       id="path9"
       d="m 1092.5261,244.1571 c -0.725,15.02819 -2.5504,29.99979 -4.1038,44.96249 -3.0179,27.07819 -5.9183,54.17091 -8.5841,81.28619 -2.2992,20.21461 -3.8714,40.47981 -4.1912,60.82156 -0.068,10.66714 0.1507,21.33353 0.082,32.00044 0,0 12.9045,6.53642 12.9045,6.53642 v 0 c -0.5763,-10.81368 -0.9062,-21.64125 -1.0891,-32.46825 -0.137,-20.43702 1.2647,-40.80901 3.3242,-61.13976 2.4118,-27.14077 5.0334,-54.26979 8.4971,-81.29911 1.9163,-14.67265 4.0429,-29.31365 6.4921,-43.90727 z" />
    <path
       style="fill:#00ff00;stroke:#000000;stroke-width:0;stroke-dasharray:none"
       id="path10"
       d="m 544.08238,274.39252 c 2.51821,12.43911 3.73938,25.11037 4.82765,37.74191 1.83377,19.26697 1.04688,38.59658 0.128,57.88331 -0.96339,13.68874 -1.01819,27.39957 -0.92733,41.11259 0.031,3.33127 0.10458,6.6626 0.0997,9.99417 0.006,0.82574 0.072,1.49893 0.012,2.47659 -0.29002,2.74022 -0.57377,5.48057 -0.8924,8.21769 0,0 13.04464,6.8109 13.04464,6.8109 v 0 c 0.22661,-2.71572 0.46327,-5.43555 0.96878,-8.11689 0.18406,-0.89505 0.52113,-1.86403 0.29637,-2.66084 -0.4634,-3.42107 -0.60479,-6.87917 -0.85851,-10.3188 -0.82348,-13.83722 -0.90001,-27.69066 -0.13144,-41.53635 0.7286,-19.28902 1.79267,-38.60702 0.21775,-57.88912 -0.91441,-12.45856 -2.18859,-24.88115 -3.49151,-37.30387 z" />
    <path
       style="fill:#00ff00;stroke:#000000;stroke-width:0;stroke-dasharray:none"
       id="path11"
       d="m 620.40096,286.12592 c -0.0686,11.87671 -2.05362,23.67215 -3.52017,35.43889 -1.85665,14.45522 -3.48088,28.92976 -4.51579,43.46783 -0.44261,6.49569 -0.80034,12.99671 -1.19459,19.49544 -0.0873,0.79753 -0.09,1.59149 -0.0859,2.39075 9.9e-4,0.14605 -0.002,0.29207 -0.004,0.4381 0,0 13.46491,6.82503 13.46491,6.82503 v 0 c -0.008,-0.15068 -0.0173,-0.30132 -0.0227,-0.45214 -0.0306,-0.81743 -0.0794,-1.62973 -0.13403,-2.44685 -0.2327,-6.64009 -0.0692,-13.28739 0.2027,-19.92381 0.79083,-14.56483 2.27803,-29.05986 4.22247,-43.51644 1.60994,-11.65893 3.38979,-23.29384 4.81429,-34.97713 z" />
    <path
       style="fill:#00ff00;stroke:#000000;stroke-width:0;stroke-dasharray:none"
       id="path12"
       d="m 681.32396,279.95666 c -4.22771,12.79699 -7.91347,25.76092 -11.15808,38.83871 -4.09768,16.78729 -6.21838,33.93847 -7.36672,51.15234 -0.97985,11.84945 -0.26854,23.71264 0.20197,35.56235 0.24025,4.19187 0.60232,8.37476 0.97674,12.5562 0,0 12.88282,6.38811 12.88282,6.38811 v 0 c -0.5436,-4.20914 -1.11338,-8.41802 -1.3826,-12.65659 -0.58258,-11.86239 -1.32108,-23.73684 -0.61503,-35.61348 0.88068,-17.20492 2.56633,-34.40275 6.82066,-51.14721 3.47767,-12.8411 7.09357,-25.7381 12.56477,-37.89984 z" />
    <path
       style="fill:#00ff00;stroke:#000000;stroke-width:0;stroke-dasharray:none"
       id="path13"
       d="m 464.28043,275.42015 c 3.39011,11.31762 4.31327,23.14828 5.24981,34.8641 1.32663,16.19465 0.84605,32.44379 1.1601,48.66473 0.11948,3.49111 0.26114,6.98789 0.68482,10.45756 0.51457,1.99789 0.40692,4.3171 0.46557,6.40545 0.0198,5.21191 0.48056,10.40868 0.8599,15.60318 0,0 13.07349,6.50718 13.07349,6.50718 v 0 c -0.59267,-5.14416 -1.20455,-10.32122 -0.9728,-15.50815 0.0549,-2.03831 0.43116,-4.57032 0.14014,-6.52677 -1.38946,-3.30059 -1.036,-7.18913 -1.71766,-10.62601 -1.20522,-16.33474 -1.00238,-32.74446 -1.95449,-49.09468 -0.62642,-11.52923 -1.27526,-23.07453 -3.52775,-34.42474 z" />
    <path
       style="fill:#00ff00;stroke:#000000;stroke-width:0;stroke-dasharray:none"
       id="path14"
       d="m 401.04212,259.97133 c -1.41004,15.99738 -3.97807,31.8673 -6.07072,47.78438 -3.21122,26.13174 -5.74018,52.32707 -6.91895,78.63001 -0.43652,10.57238 -0.5912,21.15213 -0.75523,31.7311 -0.008,1.29963 -0.0791,2.5982 -0.031,3.89592 0.007,0.2362 0.003,0.47247 -10e-5,0.70867 0,0 13.45629,6.87236 13.45629,6.87236 v 0 c -0.003,-0.26233 -0.01,-0.52461 -0.0188,-0.78686 -0.0348,-1.36481 -0.33189,-2.71288 -0.35507,-4.08268 -0.71163,-10.80681 -0.8933,-21.64448 -0.86909,-32.47225 0.42939,-26.35201 2.64094,-52.61172 6.47959,-78.6944 2.53445,-15.58773 5.2107,-31.15599 8.21104,-46.66086 z" />
    <path
       style="fill:#00ff00;stroke:#000000;stroke-width:0;stroke-dasharray:none"
       id="path15"
       d="m 292.27768,230.35971 c 0.48587,10.59651 -1.23564,21.18836 -2.63545,31.66317 -3.09677,19.4142 -5.47739,38.92122 -7.4205,58.48189 -1.87516,19.43415 -2.64644,38.92713 -2.07684,58.43915 0.4555,12.11644 1.63798,24.18852 2.48,36.28138 0.12941,2.24333 0.30986,4.48525 0.42133,6.7294 0.009,0.41773 0.009,0.83574 0.007,1.25358 -0.12354,1.01147 0.67712,1.50744 1.16399,2.32055 0.19462,0.54603 0.26519,1.12193 0.32202,1.69523 0.13765,-0.42879 0.27529,-0.85758 0.41294,-1.28636 0,0 11.93863,9.14451 11.93863,9.14451 v 0 c 0.3796,-0.36618 0.7592,-0.73236 1.1388,-1.09855 -0.0324,-0.68172 -0.14657,-1.35633 -0.24509,-2.03068 -0.0874,-0.71396 -0.35002,-2.355 -1.32434,-1.88955 0.0111,-0.45299 0.049,-0.90547 0.0115,-1.35863 -0.13649,-2.37929 -0.77719,-4.70632 -0.97379,-7.08211 -1.59032,-12.17539 -2.90788,-24.40059 -3.455,-36.67161 -0.87043,-19.52158 -0.37203,-39.06201 1.53026,-58.51845 1.98138,-19.47028 4.60077,-38.84712 7.97437,-58.12788 1.59458,-10.3458 3.32181,-20.70205 4.06161,-31.15233 z" />
    <path
       style="fill:#00ff00;stroke:#000000;stroke-width:0;stroke-dasharray:none"
       id="path16"
       d="m 197.36591,265.94465 c 2.06053,12.78298 2.52458,25.78332 3.10782,38.70036 0.49194,25.90211 0.0664,51.81138 -0.35769,77.71156 -0.44189,16.4017 -0.008,32.80695 0.17525,49.20874 -0.0953,3.07418 0.18242,6.13284 0.25466,9.20234 0,0 13.12623,6.57443 13.12623,6.57443 v 0 c -0.3523,-3.1482 -0.88379,-6.27768 -0.8756,-9.45791 -0.92312,-16.59226 -1.6957,-33.20628 -1.52169,-49.82918 0.0453,-25.88227 0.47781,-51.75865 0.60887,-77.64 -0.19757,-12.65739 -0.41507,-25.31884 -1.09344,-37.96077 z" />
    <path
       style="fill:#00ff00;stroke:#000000;stroke-width:0;stroke-dasharray:none"
       id="path17"
       d="m 113.01598,244.32243 c 3.32063,16.06114 4.30984,32.54117 5.37893,48.87697 1.56766,25.14529 3.34591,50.2766 4.74751,75.43206 0.62897,17.6328 0.40204,35.28759 -0.33062,52.91302 -0.24826,3.5258 -0.26757,7.08084 -0.70567,10.59283 -0.19187,0.70845 -0.003,0.0449 -0.008,0.10721 0,0 13.35802,7.06224 13.35802,7.06224 v 0 c 0.0353,-0.44716 0.0356,0.41458 0.0226,-0.2856 -0.11968,-3.70473 -0.16447,-7.41151 -0.22883,-11.11744 -0.23411,-17.88481 -0.21358,-35.77653 -0.92609,-53.65168 -1.34597,-25.15473 -3.49589,-50.2603 -4.72205,-75.42311 -0.78915,-16.03121 -1.76106,-32.05016 -3.09627,-48.04445 z" />
    <path
       style="fill:#00ff00;stroke:#000000;stroke-width:0;stroke-dasharray:none"
       id="path18"
       d="m 61.022573,240.59254 c 2.311326,17.5796 2.877022,35.32792 3.47175,53.0296 1.009479,29.40917 0.513303,58.82984 -0.82949,88.21632 -0.796159,14.08937 -2.103713,28.14395 -3.738993,42.15895 -0.173547,1.4765 -0.368337,2.95027 -0.582525,4.42136 0,0 13.247653,6.88594 13.247653,6.88594 v 0 c 0.03267,-1.55305 0.07823,-3.10577 0.139089,-4.658 0.572449,-14.38705 1.393787,-28.763 1.940048,-43.15123 0.760023,-29.45131 1.177871,-58.90653 0.686419,-88.36768 -0.148571,-17.33279 -0.363374,-34.65967 -1.104545,-51.97791 z" />
    <path
       style="fill:#00ff00;stroke:#000000;stroke-width:0;stroke-dasharray:none"
       id="path19"
       d="m 885.77795,269.53748 c 2.97071,17.9254 3.89979,36.11999 5.01794,54.23318 1.38121,25.44988 2.52221,50.90835 3.09145,76.38981 0.32568,19.2365 0.27081,38.47874 -0.10182,57.71398 -0.6644,3.39284 0.66344,9.85138 -0.85307,13.05234 0,0 13.08083,7.26006 13.08083,7.26006 v 0 c 1.28107,-4.14086 -0.53433,-9.81617 0.0391,-14.06538 -0.44964,-19.46049 -0.74274,-38.92427 -1.16194,-58.38543 -0.56366,-25.46446 -1.54313,-50.90463 -2.89762,-76.33999 -0.91939,-17.77121 -1.88148,-35.54074 -2.9418,-53.30222 z" />
    <path
       style="fill:#00ff00;stroke:#000000;stroke-width:0;stroke-dasharray:none"
       id="path20"
       d="m 1011.2749,250.28927 c 2.011,16.4557 1.7238,33.08946 1.4753,49.63165 -0.7792,27.22268 -2.5544,54.40647 -3.34,81.62654 -0.5421,19.60095 -0.2815,39.2244 0.7598,58.80385 0.224,4.02505 0.5302,8.03457 0.5417,12.06568 0,0 12.9521,6.54132 12.9521,6.54132 v 0 c -0.2781,-4.18158 -0.8749,-8.31831 -1.2769,-12.49053 -1.7371,-19.7171 -2.4078,-39.52551 -2.0552,-59.31816 0.6915,-27.19202 2.2889,-54.35085 3.5545,-81.52061 0.5415,-16.17839 0.9062,-32.35883 0.7201,-48.54703 z" />
    <path
       style="fill:#00ff00;stroke:#000000;stroke-width:0;stroke-dasharray:none"
       id="path21"
       d="m 758.53537,235.81054 c 2.83424,15.00249 4.2836,30.23253 5.69244,45.42186 2.35434,28.868 3.25115,57.81686 4.19681,86.75557 0.57612,18.16511 1.03682,36.33832 0.8684,54.51364 -0.0724,4.03876 0.0507,2.21617 -0.27553,5.47331 0,0 13.00026,6.72384 13.00026,6.72384 v 0 c 0.0887,-3.52663 0.10783,-1.58301 -0.15104,-5.82918 -1.05276,-18.47191 -1.82693,-36.95853 -2.66719,-55.44093 -1.16271,-28.86468 -2.01405,-57.74125 -3.73533,-86.58212 -0.96531,-14.84602 -2.05892,-29.68676 -3.65577,-44.47965 z" />
    <path
       style="fill:#00ff00;stroke:#000000;stroke-width:0;stroke-dasharray:none"
       id="path22"
       d="m 844.17321,233.4258 c 1.07162,7.90885 1.58759,15.88376 2.19317,23.83898 1.337,15.97306 2.73246,31.94091 4.08743,47.91246 1.40658,15.34268 3.0461,30.6598 4.04832,46.03599 0.68819,12.85918 1.39624,25.71774 2.40199,38.55627 0.42574,5.87522 0.84748,11.75414 1.0076,17.64376 0,0 13.27772,6.65192 13.27772,6.65192 v 0 c -0.64617,-6.02388 -1.24429,-12.05303 -1.83349,-18.08265 -1.16389,-12.87163 -2.03103,-25.76665 -2.68751,-38.67452 -1.10327,-15.41967 -2.79571,-30.78377 -4.26746,-46.17121 -1.36957,-15.88605 -2.76393,-31.7699 -3.70605,-47.6889 -0.39719,-7.74429 -0.6408,-15.49471 -1.19027,-23.22939 z" />
    <path
       style="fill:#00ff00;stroke:#000000;stroke-width:0;stroke-dasharray:none"
       id="path23"
       d="m 339.7902,287.65602 c 2.12354,18.87399 3.69904,37.80449 5.2551,56.73207 0.64012,8.49973 1.33881,16.99587 1.88975,25.50209 0.0426,1.15201 0.14679,2.2983 0.23492,3.44699 0.0362,0.66427 0.0978,1.32618 0.15455,1.98886 0.39998,4.50461 0.71219,9.01695 1.02079,13.52867 0.40304,5.95893 0.75625,11.9211 1.07631,17.885 0,0 13.10566,6.57505 13.10566,6.57505 v 0 c -0.42412,-5.9629 -0.81377,-11.92844 -1.11551,-17.89896 -0.21985,-4.45257 -0.38598,-8.90759 -0.62004,-13.35917 -0.0464,-0.66338 -0.0772,-1.32781 -0.14414,-1.98964 -0.10123,-1.17556 -0.18923,-2.3512 -0.35583,-3.52037 -0.97658,-8.6279 -1.83124,-17.26926 -2.70602,-25.90788 -1.78416,-18.77402 -3.5118,-37.55941 -4.57975,-56.39027 z" />
    <path
       style="fill:#00ff00;stroke:#000000;stroke-width:0;stroke-dasharray:none"
       id="path24"
       d="m 23.816805,275.51995 c 0.640531,15.79154 1.807289,31.55795 2.843128,47.32751 0.456295,7.59243 0.984902,15.18032 1.443513,22.77258 0.06619,1.36764 0.176766,2.73279 0.312404,4.09521 0.319827,3.78638 0.736498,7.5644 1.113274,11.34554 1.071192,11.50554 1.841048,23.03504 2.590481,34.56492 0.19393,3.23292 0.397582,6.46595 0.516692,9.70273 0.06111,0.80928 0.03337,0.40546 0.0833,1.21146 0,0 13.448416,6.74895 13.448416,6.74895 v 0 c -0.04885,-0.80589 -0.02665,-0.40314 -0.06661,-1.20824 -0.299855,-3.30427 -0.630779,-6.60578 -0.90166,-9.91269 -0.972408,-11.52384 -1.95474,-23.04761 -2.63447,-34.59355 -0.213987,-3.71668 -0.390662,-7.43749 -0.700138,-11.1478 -0.0944,-1.38229 -0.224971,-2.76202 -0.394434,-4.13716 -0.833253,-7.6914 -1.491939,-15.40079 -2.156358,-23.10816 -1.216945,-15.59711 -2.500329,-31.23716 -2.240832,-46.89355 z" />
    <path
       style="fill:#00ff00;stroke:#000000;stroke-width:0;stroke-dasharray:none"
       id="path25"
       d="m 505.72728,294.28265 c 1.75035,14.46001 2.7962,28.9972 3.996,43.5107 1.73935,19.77114 2.90436,39.58511 3.58658,59.41932 0.17569,7.21322 0.11034,3.85243 0.2087,10.08212 0,0 13.03671,6.58821 13.03671,6.58821 v 0 c -0.31834,-6.34426 -0.145,-2.92523 -0.52182,-10.257 -1.04769,-19.8862 -2.3698,-39.75658 -3.86348,-59.61419 -1.08711,-14.3518 -2.11085,-28.70782 -3.0429,-43.07056 z" />
    <path
       style="fill:#00ff00;stroke:#000000;stroke-width:0;stroke-dasharray:none"
       id="path26"
       d="m 588.77192,291.49973 c 1.18963,12.10139 2.03987,24.23333 2.8702,36.3637 0.55433,7.75665 0.9513,15.52313 1.42262,23.28482 0.13907,2.41499 0.24957,4.83237 0.4527,7.24295 1.06454,11.43845 1.73003,22.90107 2.09394,34.38148 0.0561,10.90347 0.0838,5.65028 -0.0599,15.75966 0,0 12.69896,6.48053 12.69896,6.48053 v 0 c -0.0155,-10.20254 0.007,-4.90882 -0.0746,-15.88113 -0.25578,-11.3524 -0.73124,-22.69385 -1.28241,-34.03548 -0.11437,-2.43382 -0.32945,-4.86171 -0.53107,-7.28963 -0.62567,-7.84836 -1.35973,-15.68822 -1.92904,-23.54123 -0.90853,-12.01122 -1.81266,-24.0275 -2.28283,-36.06542 z" />
    <path
       style="fill:#00ff00;stroke:#000000;stroke-width:0;stroke-dasharray:none"
       id="path27"
       d="m 918.5222,295.96012 c 1.7406,16.48589 2.82878,33.03147 3.75967,49.57991 0.4864,9.29362 0.91469,18.59173 1.09826,27.89683 0.016,0.9581 0.02,1.91839 0.0199,2.87531 0.0167,0.63308 0.0239,1.26633 0.027,1.8996 0.0356,1.05163 0.0787,2.10333 0.10862,3.15529 0.0916,1.73419 0.0646,3.47153 0.12439,5.20644 0.0177,1.38188 0.0615,2.76303 0.0731,4.14497 0.0303,0.85052 0.0308,1.70161 0.0326,2.55253 0,0 13.39457,6.81014 13.39457,6.81014 v 0 c -0.0131,-0.85152 -0.0277,-1.70313 -0.0183,-2.55479 -0.028,-1.38669 -0.0287,-2.7734 -0.0764,-4.15971 -0.0168,-1.73853 -0.1312,-3.47508 -0.12797,-5.21424 -0.0238,-1.03619 -0.0381,-2.07268 -0.0467,-3.10904 -0.0199,-0.63019 -0.0432,-1.26038 -0.0469,-1.89094 0.0236,-1.0049 -0.12891,-2.00771 -0.16393,-3.01188 -0.63196,-9.42555 -1.20824,-18.85461 -1.81059,-28.28209 -1.05948,-16.43058 -2.17603,-32.858 -3.13725,-49.29452 z" />
    <path
       style="fill:#00ff00;stroke:#000000;stroke-width:0;stroke-dasharray:none"
       id="path28"
       d="m 1045.194,438.03969 c -1.3646,3.56037 -2.9566,7.03064 -4.6806,10.43043 -0.7747,1.52756 -1.9716,2.88526 -2.399,4.54383 -1.055,4.09376 -0.09,8.61653 0.4148,12.65659 0.4125,1.91001 0.8251,3.82003 1.2376,5.73004 0,0 13.0029,6.26311 13.0029,6.26311 v 0 c -0.4493,-1.87939 -0.8986,-3.75877 -1.3479,-5.63816 -0.4507,-3.16317 -1.5637,-8.4925 -0.7158,-11.79765 0.4287,-1.67097 1.6517,-3.02926 2.4571,-4.55477 1.7939,-3.39751 3.4738,-6.84602 5.0712,-10.33972 z" />
    <path
       style="fill:#00ff00;stroke:#000000;stroke-width:0;stroke-dasharray:none"
       id="path29"
       d="m 436.40002,413.30274 c 0.11465,5.6213 0.0912,11.24456 0.0892,16.86677 0.0364,8.33758 0.11457,16.67501 0.0725,25.01267 0.0427,4.76359 -0.14409,9.52553 -0.16698,14.28822 -0.008,1.08652 -0.0247,2.17297 -0.0548,3.2591 -0.0204,1.25513 0.95725,1.92141 1.77127,2.7438 0.0842,0.0844 0.16844,0.1688 0.25267,0.2532 0,0 13.93834,5.74383 13.93834,5.74383 v 0 c -0.0895,-0.0831 -0.17896,-0.16622 -0.26845,-0.24932 -0.67414,-0.6369 -1.45993,-1.6995 -2.24222,-1.63757 -0.0298,-1.10477 -0.0464,-2.20985 -0.0548,-3.31498 -0.0231,-4.81943 -0.20852,-9.6381 -0.16698,-14.45839 -0.0417,-8.31303 0.0356,-16.62583 0.0725,-24.93878 -0.002,-5.59189 -0.0261,-11.18487 0.0892,-16.77584 z" />
    <path
       style="fill:#00ff00;stroke:#000000;stroke-width:0;stroke-dasharray:none"
       id="path30"
       d="m 530.73388,457.70361 c 1.6687,7.30061 1.95849,14.75506 1.83117,22.21007 -1.17491,12.13853 -4.31702,23.92297 -5.85924,36.0218 -0.46029,4.02011 -0.91093,8.04512 -1.15834,12.08511 -0.007,0.12068 -0.0133,0.24136 -0.0199,0.36205 0,0 13.4392,6.83345 13.4392,6.83345 v 0 c -0.009,-0.11323 -0.0172,-0.22646 -0.0258,-0.3397 -0.099,-4.06843 0.33989,-8.13406 0.65014,-12.18362 1.32465,-12.18675 4.25263,-24.02647 5.88087,-36.16128 0.25215,-7.46915 0.11531,-14.91543 -1.2809,-22.28564 z" />
    <path
       style="fill:#00ff00;stroke:#000000;stroke-width:0;stroke-dasharray:none"
       id="path31"
       d="m 29.246612,441.98795 c -0.600662,11.69386 -1.678339,23.35833 -2.830576,35.00895 -1.055911,3.909 0.05059,8.56076 -1.538047,12.32773 -1.489158,1.88177 -2.464395,3.8842 -3.077816,6.19049 -0.302169,1.50783 0.12947,2.98846 0.410608,4.46399 0.07367,0.36416 0.137714,0.73026 0.201713,1.09606 0.173654,0.39932 0.07141,0.97885 0.04588,1.45426 -0.01575,0.29132 -0.03585,0.58237 -0.05607,0.87341 0,0 13.423545,6.9219 13.423545,6.9219 v 0 c 0.0083,-0.29658 0.0166,-0.59317 0.02865,-0.88963 0.02444,-0.59549 0.0278,-1.31354 0.178659,-1.8118 -0.09765,-0.35887 -0.19562,-0.71856 -0.270027,-1.08366 -0.288869,-1.29406 -0.601992,-2.59302 -0.785385,-3.89558 0.531533,-2.24867 1.543866,-4.11463 2.940921,-5.96225 1.836846,-3.89466 0.478925,-8.82404 1.41275,-12.96458 0.845709,-11.64809 1.795244,-23.29092 3.092502,-34.89856 z" />
    <path
       style="fill:#00ff00;stroke:#000000;stroke-width:0;stroke-dasharray:none"
       id="path32"
       d="m 635.79656,383.1519 c 0.36704,3.94202 0.0285,7.90962 -0.0653,11.85883 -0.31675,5.47598 -0.7852,10.94055 -1.09622,16.41714 -0.0812,2.54818 -0.35359,5.08656 -0.47987,7.63146 -0.088,0.73931 -0.0627,1.47057 -0.0141,2.21078 -0.0308,3.62906 -0.3497,7.24768 -0.72674,10.8549 -0.29008,2.32565 -0.54537,4.65582 -0.90799,6.97171 0.0458,0.25292 -0.18922,0.54038 -0.12573,0.78029 0.0237,0.35927 0.0352,0.71735 0.0244,1.07753 0.0118,0.81087 0.0551,1.61855 0.11017,2.42789 0.19838,3.34204 -0.12823,6.69043 -0.63812,9.99072 -0.088,0.46519 -0.17597,0.93039 -0.26395,1.39558 0,0 12.86715,6.8052 12.86715,6.8052 v 0 c 0.0584,-0.48778 0.11688,-0.97555 0.17532,-1.46333 0.42296,-3.32699 0.7747,-6.66517 1.05301,-10.00583 0.0565,-0.77408 0.0999,-1.54629 0.10826,-2.32217 -0.0128,-0.36056 -0.004,-0.71909 0.0101,-1.07916 0.0303,-0.15545 -0.13087,-0.49167 -0.0613,-0.74058 -0.045,-2.42187 0.0956,-4.8417 0.26363,-7.25684 0.315,-3.57171 0.71413,-7.1499 1.3976,-10.67029 0.0482,-0.74221 0.0543,-1.47418 -0.024,-2.21557 -0.0932,-2.6299 -0.23425,-5.25902 -0.13807,-7.89243 0.13533,-5.50955 0.43688,-11.01234 0.91937,-16.503 0.2475,-3.83344 0.581,-7.65697 0.94383,-11.48012 z" />
    <path
       style="fill:#00ff00;stroke:#000000;stroke-width:0;stroke-dasharray:none"
       id="path33"
       d="m 242.13158,385.83013 c 1.17295,5.41084 1.24213,11.05066 1.59878,16.56778 0.4478,8.57911 0.93041,17.15654 1.43646,25.73248 0.30974,5.41641 0.38658,10.83968 0.77399,16.25109 0.49679,5.32426 0.63221,10.66748 0.86084,16.00644 0.21401,4.18352 0.40382,8.37208 0.36318,12.56207 -0.0472,0.97162 0.22011,1.88156 0.49155,2.79747 0.011,0.51413 0.22229,-0.0473 0.26805,0.38309 0.001,0.0365 0.003,0.0731 0.004,0.1096 0,0 13.43574,6.82576 13.43574,6.82576 v 0 c 3.5e-4,-0.0455 7e-4,-0.091 10e-4,-0.13648 0.0104,-0.35946 0.27869,-0.67314 -0.0327,-0.92063 -0.46865,-0.7609 -0.81119,-1.6146 -1.06728,-2.46472 -0.44812,-4.28663 -0.77972,-8.58658 -1.02491,-12.88931 -0.25494,-5.30314 -0.0267,-10.62032 -0.54666,-15.91022 -0.53568,-5.50319 -0.78998,-11.027 -1.36391,-16.52756 -0.73805,-8.56682 -1.25996,-17.15359 -1.54406,-25.74779 -0.157,-5.39245 -0.25873,-10.78227 -0.16461,-16.17703 z" />
    <path
       style="fill:#00ff00;stroke:#000000;stroke-width:0;stroke-dasharray:none"
       id="path34"
       d="m 789.10021,411.74036 c 0.41063,3.09334 0.8983,6.17579 1.29463,9.27146 0.73874,5.36456 1.43869,10.73424 2.14641,16.103 0.84906,5.80255 1.69442,11.60536 2.47666,17.41744 0.64681,4.56897 0.86883,9.17872 1.00779,13.78596 0.0801,4.34154 0.49133,8.66711 0.63846,13.0076 0.0261,1.90094 0.0632,3.80358 -0.0532,5.70232 -0.0417,0.83584 -0.58464,1.04885 0.3687,1.36152 0.0361,0.0157 0.0722,0.0314 0.10823,0.0471 0.0593,-0.0161 0.11899,-0.0659 0.17783,-0.0483 0.10935,0.0328 0.53464,2.44192 0.54929,2.51809 0.47948,3.04359 1.16735,6.04846 1.69493,9.0829 0.11998,0.97769 0.33771,1.94827 0.40808,2.93169 0.0378,0.34332 0.0419,0.68545 0.0203,1.03021 0,0 13.41533,6.87 13.41533,6.87 v 0 c -0.007,-0.39881 0.0132,-0.79727 5.6e-4,-1.19465 -0.10375,-1.11005 -0.36289,-2.1762 -0.65878,-3.25225 -0.70068,-2.96843 -1.45038,-5.93261 -1.75923,-8.97373 -0.0418,-1.06303 -0.12986,-2.16012 -0.0796,-3.19735 -0.67509,-1.52088 -0.78554,0.81576 -0.89272,-0.40897 -0.19618,-2.00402 -0.32404,-4.01327 -0.48528,-6.02023 -0.28765,-4.33061 -0.61554,-8.66328 -0.70085,-13.00335 -0.1219,-4.70357 -0.45215,-9.39698 -1.17204,-14.05107 -0.89729,-5.79312 -1.65267,-11.60453 -2.4899,-17.40651 -0.71576,-5.30185 -1.40873,-10.60448 -1.8832,-15.93472 -0.26565,-2.95705 -0.68352,-5.89682 -0.83567,-8.86309 z" />
    <circle
       id="path35"
       style="fill:#00ff00;stroke:#000000"
       cx="952.19147"
       cy="749.52911"
       r="0" />
  </g>
</svg>
