<?xml version="1.0" encoding="UTF-8" standalone="no"?>
<!-- Created with Inkscape (http://www.inkscape.org/) -->

<svg
   width="297mm"
   height="210mm"
   viewBox="0 0 1122.5197 793.70081"
   version="1.1"
   id="svg1"
   inkscape:version="1.4.3 (0d15f75042, 2025-12-25)"
   sodipodi:docname="ground.svg"
   inkscape:export-filename="ground.png"
   inkscape:export-xdpi="96"
   inkscape:export-ydpi="96"
   xmlns:inkscape="http://www.inkscape.org/namespaces/inkscape"
   xmlns:sodipodi="http://sodipodi.sourceforge.net/DTD/sodipodi-0.dtd"
   xmlns:xlink="http://www.w3.org/1999/xlink"
   xmlns="http://www.w3.org/2000/svg"
   xmlns:svg="http://www.w3.org/2000/svg">
  <sodipodi:namedview
     id="namedview1"
     pagecolor="#ffffff"
     bordercolor="#000000"
     borderopacity="0.25"
     inkscape:showpageshadow="2"
     inkscape:pageopacity="0.0"
     inkscape:pagecheckerboard="0"
     inkscape:deskcolor="#d1d1d1"
     inkscape:document-units="mm"
     inkscape:zoom="0.57221973"
     inkscape:cx="665.82814"
     inkscape:cy="527.76929"
     inkscape:window-width="1436"
     inkscape:window-height="847"
     inkscape:window-x="0"
     inkscape:window-y="0"
     inkscape:window-maximized="0"
     inkscape:current-layer="layer1" />
  <defs
     id="defs1">
    <pattern
       inkscape:collect="always"
       xlink:href="#pattern6-7"
       preserveAspectRatio="xMidYMid"
       id="pattern5"
       patternTransform="translate(190,350)" />
    <pattern
       inkscape:collect="always"
       xlink:href="#Fish scales"
       preserveAspectRatio="xMidYMid"
       id="pattern2"
       patternTransform="rotate(-1.7185015,18893.736,-1473.6113)"
       x="0"
       y="0" />
    <pattern
       patternUnits="userSpaceOnUse"
       preserveAspectRatio="xMidYMid"
       width="52.937091"
       height="52.937091"
       patternTransform="translate(51.417267,442.18243)"
       style="fill:#140e03"
       id="Fish scales"
       inkscape:collect="always"
       inkscape:isstock="true"
       inkscape:label="Fish scales">
      <path
         id="path48328"
         style="font-variation-settings:normal;opacity:1;fill-opacity:1;stroke:none;stroke-width:23.2816;stroke-linecap:butt;stroke-linejoin:miter;stroke-miterlimit:4;stroke-dasharray:none;stroke-dashoffset:0;stroke-opacity:1;paint-order:markers fill stroke;stop-color:#000000;stop-opacity:1"
         d="M 0,0 C 0,14.663252 11.805097,26.468546 26.468546,26.468546 41.131994,26.468546 52.937091,14.663252 52.937091,0 52.560688,0.09705827 52.330704,0.31891654 52.220118,0.68172094 49.513432,11.903656 39.064675,19.500949 26.468546,19.500949 13.872401,19.500949 3.4236548,11.903656 0.71697638,0.68172094 0.6064252,0.31892409 0.37636535,0.09701291 0,0 Z m 26.468546,26.468546 c 0,14.663346 11.805097,26.468545 26.468545,26.468545 v -6.968372 c -12.596145,0 -23.044894,-7.596412 -25.751569,-18.818453 -0.110551,-0.362796 -0.340611,-0.584723 -0.716976,-0.68172 z m 0,0 c -0.376404,0.09706 -0.606392,0.318916 -0.716977,0.68172 C 23.044891,38.372307 12.596145,45.968719 0,45.968719 v 6.968372 c 14.663448,0 26.468546,-11.805199 26.468546,-26.468545 z" />
    </pattern>
    <pattern
       inkscape:collect="always"
       xlink:href="#pattern6-7"
       preserveAspectRatio="xMidYMid"
       id="pattern3"
       patternTransform="translate(190,350)" />
    <pattern
       patternUnits="userSpaceOnUse"
       width="28.28"
       height="23.44"
       patternTransform="translate(190,350)"
       preserveAspectRatio="xMidYMid"
       style="fill:#000000"
       id="pattern6-7"
       inkscape:label="pattern6-7"
       inkscape:collect="always"
       inkscape:isstock="true">
      <path
         style="paint-order:stroke markers fill;stop-color:#000000"
         d="M 0,0        A 20,20 0,0,1 14.14,5.86        A 20,20 0,0,0 28.28,11.72        L 28.28, 23.44        A 20,20 0,0,1 14.14,17.58        A 20,20 0,0,0 0,11.72        L 0,0 "
         id="path4-2"
         sodipodi:nodetypes="cc" />
    </pattern>
    <pattern
       inkscape:collect="always"
       xlink:href="#pattern6-7-2"
       preserveAspectRatio="xMidYMid"
       id="pattern3-2"
       patternTransform="translate(189.99999,350)"
       x="0"
       y="0" />
    <pattern
       patternUnits="userSpaceOnUse"
       width="28.28"
       height="23.44"
       patternTransform="translate(190,350)"
       preserveAspectRatio="xMidYMid"
       style="fill:#000000"
       id="pattern6-7-2"
       inkscape:label="pattern6-7-2"
       inkscape:collect="always"
       inkscape:isstock="true">
      <path
         style="paint-order:stroke markers fill;stop-color:#000000"
         d="M 0,0        A 20,20 0,0,1 14.14,5.86        A 20,20 0,0,0 28.28,11.72        L 28.28, 23.44        A 20,20 0,0,1 14.14,17.58        A 20,20 0,0,0 0,11.72        L 0,0 "
         id="path4-2-6"
         sodipodi:nodetypes="cc" />
    </pattern>
  </defs>
  <g
     inkscape:label="Livello 1"
     inkscape:groupmode="layer"
     id="layer1">
    <rect
       style="fill:#94600b;stroke:url(#pattern3);stroke-width:0;fill-opacity:1"
       id="rect1"
       width="1122.5197"
       height="793.70081"
       x="0"
       y="0" />
    <rect
       style="fill:url(#pattern2);stroke:url(#pattern3-2);stroke-width:0"
       id="rect1-6"
       width="1122.5197"
       height="793.70081"
       x="0"
       y="0" />
    <path
       style="fill:#0cb716;fill-opacity:1;stroke:url(#pattern5);stroke-width:0"
       d="M 0,8e-6 V 211.65355 l 176.89084,-67.82641 95.88477,54.55512 109.11023,-62.82105 150.43988,74.39334 171.93129,-71.08697 104.15069,69.43379 143.82713,-69.43379 170.28487,72.78597 V 0 Z"
       id="path2-7"
       sodipodi:nodetypes="cccccccccccc" />
  </g>
</svg>
